# xmcd
#
# Track frame offsets:
#	150
#	25507
#	44218
#	74285
#	94949
#	109861
#	127715
#	145565
#	169509
#	190171
#	213802
#	235544
#	257653
#	286407
#
# Disc length: 3993 seconds
#
# Revision: 0
# Processed by: cddbd v1.5.2PL0 Copyright (c) Steve Scherf et al.
# Submitted via: EasyCDDAExtractor 15.3.0.1
#
DISCID=b90f970e
DTITLE=Chayanne - A Solas Con Chayanne
DYEAR=2012
DGENRE=Latin
TTITLE0=Provocame
TTITLE1=Lola
TTITLE2=Un Siglo Sin Ti
TTITLE3=Si No Estas
TTITLE4=Caprichosa
TTITLE5=Tu Boca
TTITLE6=Baila, Baila
TTITLE7=Dejaria Todo
TTITLE8=Salome
TTITLE9=Besos En La Boca (Beijar Na Boca)
TTITLE10=Tiempo De Vals
TTITLE11=Me Enamore De Ti
TTITLE12=Torero
TTITLE13=Amorcito Corazon (Bonus Track)
EXTD=
EXTT0=
EXTT1=
EXTT2=
EXTT3=
EXTT4=
EXTT5=
EXTT6=
EXTT7=
EXTT8=
EXTT9=
EXTT10=
EXTT11=
EXTT12=
EXTT13=
PLAYORDER=
